<?xml version="1.0" encoding="utf-8"?>
<!-- Generator: Adobe Illustrator 23.0.3, SVG Export Plug-In . SVG Version: 6.00 Build 0)  -->
<svg version="1.1" id="Layer_1" xmlns="http://www.w3.org/2000/svg" xmlns:xlink="http://www.w3.org/1999/xlink" x="0px" y="0px"
	 viewBox="0 0 113.36 10.33" style="enable-background:new 0 0 113.36 10.33;" xml:space="preserve">
<g>
	<path d="M2.18,4.97v1.92c0,1.04,0.07,1.69,0.88,1.69c0.95,0,0.96-0.71,0.96-2.16V0h2.3v6.7c0,2.47-0.89,3.62-3.24,3.62
		c-1.42,0-2.47-0.64-2.82-1.58C0.02,8.07,0,7.33,0,6.46v-1.5H2.18z"/>
	<path d="M15.08,6.8c0,2.51-1.01,3.53-3.57,3.53c-1.7,0-2.76-0.46-3.26-1.56C7.96,8.13,7.92,7.39,7.92,6.49V0h2.34v6.64
		c0,1.33,0.32,1.98,1.22,1.98c0.97,0,1.27-0.72,1.27-2.05V0h2.33V6.8z"/>
	<path d="M16.75,0h2.33v7.17c0,0.73-0.16,0.97-0.37,1.25l0.23,0.22c0.44-0.14,0.89-0.17,1.37-0.17h2.12v1.69h-5.67V0z"/>
	<path d="M26.01,10.16h-2.34V0h2.34V10.16z"/>
	<path d="M29.79,0h3.18l2.19,10.16h-2.29l-0.25-1.12c-0.07-0.32-0.02-0.7,0.04-0.91L32.52,8c-0.38,0.12-0.73,0.18-1.34,0.18
		c-0.67,0-0.97-0.01-1.42-0.18l-0.13,0.11c0.02,0.18,0.1,0.68,0,1.07l-0.25,0.98h-2.19L29.79,0z M30.99,1.13
		c-0.23,2.57-0.54,4.38-1.03,5.43l0.14,0.2c0.38-0.11,0.76-0.13,1.12-0.13c0.34,0,0.67,0.02,1.02,0.13l0.14-0.2
		c-0.37-0.79-0.77-2.63-0.94-5.43H30.99z"/>
	<path d="M40.37,3.36c0.54,1.13,1.01,2.78,1.07,4.44h0.65c-0.25-1.85-0.43-3.54-0.43-5.1V0h1.94v10.16H41.3l-2.16-4.41
		c-0.55-1.13-0.86-2.42-0.89-3.63h-0.65c0.29,1.81,0.43,3.48,0.43,5v3.05H36.1V0h2.65L40.37,3.36z"/>
	<path d="M50.64,10.16L48.59,0h2.28l0.37,2.64c0.29,2.05,0.46,3.83,0.48,5.3h0.6c0.01-1.61,0.31-3.33,0.68-5.25L53.52,0h1.96
		l0.49,2.49c0.42,2.13,0.66,3.95,0.74,5.44h0.59c0.01-1.81,0.18-3.6,0.46-5.31L58.17,0h2.1l-2.05,10.16H55.9L55.26,6.6
		c-0.23-1.27-0.48-2.79-0.5-4.65h-0.62v0.11c0,1.48-0.23,2.99-0.54,4.61l-0.68,3.5H50.64z"/>
	<path d="M61.26,0h5.84v1.64h-2.29c-0.48,0-0.92-0.01-1.37-0.17l-0.23,0.22c0.25,0.34,0.37,0.64,0.37,1.02v0.38
		c0,0.34-0.13,0.64-0.37,0.97l0.23,0.23c0.43-0.13,0.89-0.18,1.37-0.18h2.15v1.73h-2.15c-0.49,0-0.95-0.02-1.37-0.18l-0.23,0.23
		c0.28,0.36,0.37,0.67,0.37,1.09v0.43c0,0.37-0.12,0.67-0.37,1.01l0.23,0.22c0.44-0.14,0.89-0.17,1.37-0.17h2.46v1.69h-6.01V0z"/>
	<path d="M71.18,10.16h-2.34V0h2.34V10.16z"/>
	<path d="M77.36,3.36c0.54,1.13,1.01,2.78,1.07,4.44h0.65c-0.25-1.85-0.43-3.54-0.43-5.1V0h1.94v10.16H78.3l-2.16-4.41
		c-0.55-1.13-0.86-2.42-0.89-3.63H74.6c0.29,1.81,0.43,3.48,0.43,5v3.05h-1.94V0h2.65L77.36,3.36z"/>
	<path d="M84.61,2.43c0,1-0.07,1.97-0.22,2.93l0.37,0.1c0.19-0.78,0.58-1.55,1.02-2.41L87.36,0h2.53l-1.66,3.03
		c-0.31,0.56-0.66,1.04-1.17,1.44v0.18c0.49,0.34,0.72,0.89,1.06,1.62l1.8,3.89h-2.55l-1.49-3.35c-0.19-0.44-0.34-0.86-0.38-1.32
		h-0.24l-0.73,1.52c0.04,0.16,0.1,0.31,0.1,0.65v2.49h-2.33V0h2.33V2.43z"/>
	<path d="M92.63,0h3.18L98,10.16h-2.29l-0.25-1.12c-0.07-0.32-0.02-0.7,0.04-0.91L95.35,8c-0.38,0.12-0.73,0.18-1.34,0.18
		c-0.67,0-0.97-0.01-1.42-0.18l-0.13,0.11c0.02,0.18,0.1,0.68,0,1.07l-0.25,0.98h-2.19L92.63,0z M93.83,1.13
		c-0.23,2.57-0.54,4.38-1.03,5.43l0.14,0.2c0.38-0.11,0.75-0.13,1.12-0.13c0.34,0,0.67,0.02,1.02,0.13l0.14-0.2
		c-0.37-0.79-0.77-2.63-0.94-5.43H93.83z"/>
	<path d="M105.85,6.8c0,2.51-1.01,3.53-3.57,3.53c-1.7,0-2.76-0.46-3.26-1.56c-0.29-0.64-0.32-1.38-0.32-2.28V0h2.34v6.64
		c0,1.33,0.32,1.98,1.22,1.98c0.97,0,1.27-0.72,1.27-2.05V0h2.33V6.8z"/>
	<path d="M113.36,1.67h-2.29c-0.49,0-0.94-0.04-1.37-0.18l-0.23,0.23c0.25,0.34,0.37,0.65,0.37,1.02v0.37
		c0,0.34-0.13,0.65-0.37,0.98l0.23,0.22c0.46-0.14,0.9-0.18,1.37-0.18h2.15v1.73h-2.15c-0.47,0-0.91-0.01-1.37-0.17l-0.23,0.22
		c0.28,0.36,0.37,0.68,0.37,1.1v3.15h-2.33V0h5.84V1.67z"/>
</g>
</svg>
