<?xml version="1.0" encoding="utf-8"?>
<!-- Generator: Adobe Illustrator 23.0.3, SVG Export Plug-In . SVG Version: 6.00 Build 0)  -->
<svg version="1.1" id="Layer_1" xmlns="http://www.w3.org/2000/svg" xmlns:xlink="http://www.w3.org/1999/xlink" x="0px" y="0px"
	 viewBox="0 0 113.28 10.49" style="enable-background:new 0 0 113.28 10.49;" xml:space="preserve">
<g>
	<path d="M4.27,3.53c0.54,1.13,1.01,2.78,1.07,4.44h0.65c-0.25-1.85-0.43-3.54-0.43-5.1v-2.7H7.5v10.16H5.21L3.05,5.91
		C2.49,4.79,2.18,3.49,2.16,2.28H1.51c0.29,1.81,0.43,3.48,0.43,5v3.05H0V0.17h2.65L4.27,3.53z"/>
	<path d="M11.76,10.33H9.42V0.17h2.34V10.33z"/>
	<path d="M16.02,2.6c0,1-0.07,1.97-0.22,2.93l0.37,0.1c0.19-0.78,0.58-1.55,1.02-2.41l1.57-3.05h2.53L19.64,3.2
		c-0.31,0.56-0.66,1.04-1.18,1.44v0.18c0.49,0.34,0.72,0.89,1.06,1.62l1.8,3.89h-2.55l-1.49-3.35c-0.19-0.44-0.34-0.86-0.38-1.32
		h-0.24l-0.73,1.52c0.04,0.16,0.1,0.31,0.1,0.65v2.49h-2.33V0.17h2.33V2.6z"/>
	<path d="M25.64,0c2.55,0,3.85,1.75,3.85,5.23c0,3.51-1.27,5.27-3.83,5.27s-3.83-1.75-3.83-5.27C21.84,1.75,23.12,0,25.64,0z
		 M24.33,5.24c0,2.45,0.24,3.55,1.32,3.55c1.13,0,1.33-1.13,1.33-3.77c0-2.3-0.29-3.32-1.31-3.32C24.56,1.7,24.33,2.81,24.33,5.24z"
		/>
	<path d="M36.67,2.99h-0.76c-0.46-0.9-1.16-1.35-1.8-1.35c-0.76,0-1.25,0.46-1.25,1.02c0,0.98,1.24,1.38,2.79,2.16
		c0.65,0.32,1.55,1.21,1.55,2.53c0,1.75-1.43,3.15-3.72,3.15c-0.96,0-1.91-0.25-2.95-0.7l0.08-2.53h0.7
		c0.44,0.96,1.3,1.51,2.16,1.51c0.82,0,1.36-0.5,1.36-1.13c0-1.03-1.09-1.3-2.09-1.77c-1.45-0.71-2.17-1.68-2.17-2.94
		c0-1.75,1.25-2.94,3.48-2.94c0.88,0,1.72,0.2,2.61,0.56V2.99z"/>
	<path d="M45.2,10.33h-2.3V3.05c0-0.38,0.11-0.68,0.36-1.02l-0.22-0.22c-0.43,0.14-0.88,0.17-1.37,0.17h-1.13V0.17h7.02v1.81h-1.14
		c-0.48,0-0.92-0.01-1.37-0.17l-0.22,0.22c0.25,0.34,0.36,0.64,0.36,1.02V10.33z"/>
	<path d="M54.39,2.99h-0.76c-0.46-0.9-1.16-1.35-1.8-1.35c-0.76,0-1.25,0.46-1.25,1.02c0,0.98,1.24,1.38,2.79,2.16
		c0.65,0.32,1.55,1.21,1.55,2.53c0,1.75-1.43,3.15-3.72,3.15c-0.96,0-1.91-0.25-2.95-0.7l0.08-2.53h0.7
		c0.44,0.96,1.3,1.51,2.16,1.51c0.82,0,1.36-0.5,1.36-1.13c0-1.03-1.09-1.3-2.09-1.77C49.02,5.17,48.3,4.2,48.3,2.94
		C48.3,1.19,49.55,0,51.78,0c0.88,0,1.72,0.2,2.61,0.56V2.99z"/>
	<path d="M59.87,0c2.55,0,3.85,1.75,3.85,5.23c0,3.51-1.27,5.27-3.83,5.27c-2.55,0-3.83-1.75-3.83-5.27C56.06,1.75,57.35,0,59.87,0z
		 M58.56,5.24c0,2.45,0.24,3.55,1.32,3.55c1.13,0,1.33-1.13,1.33-3.77c0-2.3-0.29-3.32-1.31-3.32C58.79,1.7,58.56,2.81,58.56,5.24z"
		/>
	<path d="M72.21,6.97c0,2.51-1.01,3.53-3.57,3.53c-1.7,0-2.76-0.46-3.26-1.56c-0.29-0.64-0.32-1.38-0.32-2.28V0.17h2.34v6.64
		c0,1.33,0.32,1.98,1.22,1.98c0.97,0,1.27-0.72,1.27-2.05V0.17h2.33V6.97z"/>
	<path d="M77.9,3.57c0.18,0.74,0.41,2.19,0.42,4.22h0.66V7.64c0-1.43,0.16-2.81,0.49-4.19l0.8-3.29h3.03v10.16h-1.92V5.22
		c0-0.32,0.05-1.42,0.29-3.23h-0.64c-0.04,1.33-0.32,2.49-0.62,3.62l-1.24,4.71h-1.27l-1.45-5.95c-0.19-0.78-0.29-1.56-0.31-2.39
		h-0.64c0.17,1.09,0.25,2.11,0.25,3.03v5.3h-1.8V0.17h3.11L77.9,3.57z"/>
	<path d="M86.93,0.17h3.18l2.19,10.16h-2.29l-0.25-1.12c-0.07-0.32-0.02-0.7,0.04-0.91l-0.14-0.13c-0.38,0.12-0.73,0.18-1.34,0.18
		c-0.67,0-0.97-0.01-1.42-0.18l-0.13,0.11c0.02,0.18,0.1,0.68,0,1.07l-0.25,0.98h-2.19L86.93,0.17z M88.13,1.3
		c-0.23,2.57-0.54,4.38-1.03,5.43l0.14,0.2c0.38-0.11,0.75-0.13,1.12-0.13c0.34,0,0.67,0.02,1.02,0.13l0.14-0.2
		c-0.37-0.79-0.77-2.63-0.94-5.43H88.13z"/>
	<path d="M97.5,3.53c0.54,1.13,1.01,2.78,1.07,4.44h0.65c-0.25-1.85-0.43-3.54-0.43-5.1v-2.7h1.94v10.16h-2.29l-2.16-4.41
		c-0.55-1.13-0.86-2.42-0.89-3.63h-0.65c0.29,1.81,0.43,3.48,0.43,5v3.05h-1.94V0.17h2.65L97.5,3.53z"/>
	<path d="M104.99,10.33h-2.34V0.17h2.34V10.33z"/>
	<path d="M112.74,2.99h-0.75c-0.46-0.9-1.16-1.35-1.8-1.35c-0.75,0-1.25,0.46-1.25,1.02c0,0.98,1.24,1.38,2.79,2.16
		c0.65,0.32,1.55,1.21,1.55,2.53c0,1.75-1.43,3.15-3.72,3.15c-0.96,0-1.91-0.25-2.95-0.7l0.08-2.53h0.7
		c0.44,0.96,1.29,1.51,2.16,1.51c0.82,0,1.35-0.5,1.35-1.13c0-1.03-1.09-1.3-2.09-1.77c-1.45-0.71-2.17-1.68-2.17-2.94
		c0-1.75,1.25-2.94,3.48-2.94c0.88,0,1.71,0.2,2.61,0.56V2.99z"/>
</g>
</svg>
