<?xml version="1.0" encoding="utf-8"?>
<!-- Generator: Adobe Illustrator 23.0.3, SVG Export Plug-In . SVG Version: 6.00 Build 0)  -->
<svg version="1.1" id="Layer_1" xmlns="http://www.w3.org/2000/svg" xmlns:xlink="http://www.w3.org/1999/xlink" x="0px" y="0px"
	 viewBox="0 0 300 108.8" style="enable-background:new 0 0 300 108.8;" xml:space="preserve">
<g id="eMCNTA_1_">
	<g>
		<path d="M176.3,0c9.3,0,18.6,0,27.9,0c0.1,0.2,0.3,0.5,0.4,0.7c4.6,9.5,9.1,19.1,13.8,28.6c5.2,10.3,9.2,21,11.6,32.4
			c1.2,5.7,2,11.4,2.4,17.2c0.1,1.1,0.1,2.1,0.2,3.2c2.3,0,4.5,0,6.7,0c0-0.3,0-0.6-0.1-0.8c-0.7-5.2-1.4-10.3-2-15.5
			c-0.6-5.3-1.1-10.6-1.5-15.9c-0.4-6.1-0.8-12.1-0.9-18.2c-0.1-10.5,0-21.1,0-31.6c6.8,0,13.6,0,20.4,0c0,0.3,0,0.5,0,0.8
			c0,35.1,0,70.2,0,105.3c0,0.3,0,0.5,0,0.9c-0.3,0-0.6,0-0.8,0c-7.5,0-15,0-22.6,0c-0.5,0-0.8-0.2-1.1-0.7
			c-6.7-13.7-13.3-27.3-20.1-41c-2.9-5.9-5.7-11.8-7.6-18c-2.2-7.2-3.6-14.5-4-22.1c0-1-0.1-2-0.2-2.9c-2.3,0-4.5,0-6.7,0
			c0,0.2,0,0.3,0,0.4c0.7,4.6,1.4,9.2,1.9,13.8c0.7,5.7,1.2,11.4,1.7,17.1c0.4,5.3,0.7,10.7,0.8,16.1c0.1,12.2,0.1,24.3,0.1,36.5
			c0,0.2,0,0.5,0,0.7c-6.8,0-13.6,0-20.4,0c0-0.3,0-0.6,0-0.9c0-20.8,0-41.5,0-62.3C176.3,29.2,176.3,14.6,176.3,0z"/>
		<path d="M158.7,0c0,0.3,0.1,0.5,0.1,0.8c0,23.5,0,47,0,70.5c0,5.5-0.4,11-1.8,16.4c-1.4,5.2-3.8,9.8-7.9,13.4
			c-3.4,3-7.5,4.8-11.9,5.9c-3.8,1-7.7,1.5-11.7,1.6c-0.4,0-0.8,0.1-1.3,0.1c-2,0-4.1,0-6.1,0c-0.5,0-0.9-0.1-1.4-0.1
			c-4.1-0.2-8.1-0.7-12.1-1.8c-4.9-1.3-9.3-3.5-12.9-7.2c-4.1-4.2-6.3-9.4-7.3-15.1c-0.9-4.6-1.1-9.3-1.1-14c0-23.3,0-46.6,0-69.9
			c0-0.2,0-0.5,0-0.7c8.2,0,16.4,0,24.6,0c0,0.3,0,0.7,0,1c0,21.8,0,43.7,0,65.5c0,3,0.1,6,0.2,9c0.1,2.7,0.6,5.4,1.6,7.9
			c1.3,3.4,3.5,5.9,7.1,6.9c2.6,0.7,5.3,0.7,7.9,0c3.9-1,6.2-3.7,7.5-7.4c1.3-3.7,1.7-7.6,1.7-11.4c0-23.5,0-47.1,0-70.6
			c0-0.3,0-0.6,0-0.9C142.3,0,150.5,0,158.7,0z"/>
		<path d="M35.2,108.8c-1.6,0-3.2,0-4.7,0c-0.9-0.1-1.7-0.2-2.6-0.3c-4.6-0.4-9-1.6-13.1-3.7c-6.5-3.4-11-8.4-12.8-15.6
			c-1.2-4.8-1.6-9.6-1.8-14.5c0-1.1-0.1-2.2-0.1-3.2c0-6.4,0-12.7,0-19.1c0.3,0,0.5-0.1,0.8-0.1c7.1,0,14.3,0,21.4,0
			c0.2,0,0.5,0,0.8,0c0,0.3,0,0.6,0,0.8c0,2.1,0,4.2,0,6.2c0.1,6.7,0.1,13.4,0.2,20.1c0,2.1,0.4,4.2,1.2,6.1c1,2.5,2.7,4.1,5.4,4.5
			c1.2,0.2,2.4,0.2,3.6,0.2c3.9-0.1,6.4-2,7.6-5.7c0.1-0.4,0.2-0.8,0.3-1.2c0.8-3.4,0.9-7,0.9-10.5c0-24.3,0-48.6,0-72.8
			c8.1,0,16.1,0,24.2,0c0,0.3,0,0.7,0,1c0,22.2,0,44.4,0,66.7c0,3.5-0.1,7-0.3,10.5c-0.3,4.2-1,8.3-2.4,12.3
			c-2.1,5.9-5.5,10.7-11,13.8c-4.5,2.6-9.4,3.7-14.5,4.2C37.3,108.6,36.2,108.7,35.2,108.8z"/>
		<path d="M300,106.9c-0.2,0-0.4,0.1-0.6,0.1c-7.9,0-15.8,0-23.7,0c-0.1,0-0.2,0-0.5,0c0-0.3,0-0.6,0-0.8c0-35.1,0-70.2,0-105.3
			c0-0.3,0.1-0.5,0.1-0.8c8.2,0,16.4,0,24.6,0C300,35.6,300,71.2,300,106.9z"/>
	</g>
</g>
</svg>
