<?xml version="1.0" encoding="utf-8"?>
<!-- Generator: Adobe Illustrator 23.0.3, SVG Export Plug-In . SVG Version: 6.00 Build 0)  -->
<!DOCTYPE svg PUBLIC "-//W3C//DTD SVG 1.1//EN" "http://www.w3.org/Graphics/SVG/1.1/DTD/svg11.dtd" [
	<!ENTITY ns_extend "http://ns.adobe.com/Extensibility/1.0/">
	<!ENTITY ns_ai "http://ns.adobe.com/AdobeIllustrator/10.0/">
	<!ENTITY ns_graphs "http://ns.adobe.com/Graphs/1.0/">
	<!ENTITY ns_vars "http://ns.adobe.com/Variables/1.0/">
	<!ENTITY ns_imrep "http://ns.adobe.com/ImageReplacement/1.0/">
	<!ENTITY ns_sfw "http://ns.adobe.com/SaveForWeb/1.0/">
	<!ENTITY ns_custom "http://ns.adobe.com/GenericCustomNamespace/1.0/">
	<!ENTITY ns_adobe_xpath "http://ns.adobe.com/XPath/1.0/">
]>
<svg version="1.1" id="Layer_1" xmlns:x="&ns_extend;" xmlns:i="&ns_ai;" xmlns:graph="&ns_graphs;"
	 xmlns="http://www.w3.org/2000/svg" xmlns:xlink="http://www.w3.org/1999/xlink" x="0px" y="0px" viewBox="0 0 299.9 108.9"
	 style="enable-background:new 0 0 299.9 108.9;" xml:space="preserve">
<metadata><?xpacket begin="﻿" id="W5M0MpCehiHzreSzNTczkc9d"?>
<x:xmpmeta xmlns:x="adobe:ns:meta/" x:xmptk="Adobe XMP Core 5.6-c145 79.163499, 2018/08/13-16:40:22        ">
   <rdf:RDF xmlns:rdf="http://www.w3.org/1999/02/22-rdf-syntax-ns#">
      <rdf:Description rdf:about=""
            xmlns:xmp="http://ns.adobe.com/xap/1.0/"
            xmlns:xmpGImg="http://ns.adobe.com/xap/1.0/g/img/"
            xmlns:xmpTPg="http://ns.adobe.com/xap/1.0/t/pg/"
            xmlns:stDim="http://ns.adobe.com/xap/1.0/sType/Dimensions#"
            xmlns:xmpG="http://ns.adobe.com/xap/1.0/g/"
            xmlns:dc="http://purl.org/dc/elements/1.1/"
            xmlns:xmpMM="http://ns.adobe.com/xap/1.0/mm/"
            xmlns:stRef="http://ns.adobe.com/xap/1.0/sType/ResourceRef#"
            xmlns:stEvt="http://ns.adobe.com/xap/1.0/sType/ResourceEvent#">
         <xmp:CreatorTool>Adobe Illustrator CC 23.0 (Macintosh)</xmp:CreatorTool>
         <xmp:CreateDate>2019-11-28T17:45:26+02:00</xmp:CreateDate>
         <xmp:MetadataDate>2019-11-28T17:45:26+02:00</xmp:MetadataDate>
         <xmp:ModifyDate>2019-11-28T17:45:26+02:00</xmp:ModifyDate>
         <xmp:Thumbnails>
            <rdf:Alt>
               <rdf:li rdf:parseType="Resource">
                  <xmpGImg:width>256</xmpGImg:width>
                  <xmpGImg:height>96</xmpGImg:height>
                  <xmpGImg:format>JPEG</xmpGImg:format>
                  <xmpGImg:image>/9j/4AAQSkZJRgABAgEASABIAAD/7QAsUGhvdG9zaG9wIDMuMAA4QklNA+0AAAAAABAASAAAAAEA&#xA;AQBIAAAAAQAB/+4ADkFkb2JlAGTAAAAAAf/bAIQABgQEBAUEBgUFBgkGBQYJCwgGBggLDAoKCwoK&#xA;DBAMDAwMDAwQDA4PEA8ODBMTFBQTExwbGxscHx8fHx8fHx8fHwEHBwcNDA0YEBAYGhURFRofHx8f&#xA;Hx8fHx8fHx8fHx8fHx8fHx8fHx8fHx8fHx8fHx8fHx8fHx8fHx8fHx8fHx8f/8AAEQgAYAEAAwER&#xA;AAIRAQMRAf/EAaIAAAAHAQEBAQEAAAAAAAAAAAQFAwIGAQAHCAkKCwEAAgIDAQEBAQEAAAAAAAAA&#xA;AQACAwQFBgcICQoLEAACAQMDAgQCBgcDBAIGAnMBAgMRBAAFIRIxQVEGE2EicYEUMpGhBxWxQiPB&#xA;UtHhMxZi8CRygvElQzRTkqKyY3PCNUQnk6OzNhdUZHTD0uIIJoMJChgZhJRFRqS0VtNVKBry4/PE&#xA;1OT0ZXWFlaW1xdXl9WZ2hpamtsbW5vY3R1dnd4eXp7fH1+f3OEhYaHiImKi4yNjo+Ck5SVlpeYmZ&#xA;qbnJ2en5KjpKWmp6ipqqusra6voRAAICAQIDBQUEBQYECAMDbQEAAhEDBCESMUEFURNhIgZxgZEy&#xA;obHwFMHR4SNCFVJicvEzJDRDghaSUyWiY7LCB3PSNeJEgxdUkwgJChgZJjZFGidkdFU38qOzwygp&#xA;0+PzhJSktMTU5PRldYWVpbXF1eX1RlZmdoaWprbG1ub2R1dnd4eXp7fH1+f3OEhYaHiImKi4yNjo&#xA;+DlJWWl5iZmpucnZ6fkqOkpaanqKmqq6ytrq+v/aAAwDAQACEQMRAD8A9U4q7FXYq7FXyr/znP8A&#xA;9MT/ANvT/sTxV8q4q7FX6afl5/ygHln/ALZVj/1DJiqF/Nj/AMlZ5y/7Yepf9QcmKvzVxV2KvqD/&#xA;AJwc/wCOr5u/4wWX/E5sVfWmKuxV8Af85R/+T28zf9GP/dPt8VeVYqmvlP8A5SnRv+Y62/5PLir9&#xA;P8Vea/8AOSP/AJJLzT/xgh/6iYsVfnrirsVR2h61qGh6zZaxpsvo3+nzx3NtJ4PGwZajuNtx3GKv&#xA;0q8jebLDzd5R0rzJY7QalbrMY68jHJ9mWIkd45Ayn5YqnmKuxV+W2rf8dW8/4zyf8TOKoTFX3/8A&#xA;84uf+SJ8s/8AR9/3ULjFXquKviD/AJzJ/wDJuQ/9sq2/5OzYq8KxV2Kv1UxV2KuxV2KvlX/nOf8A&#xA;6Yn/ALen/Ynir5VxV2Kv00/Lz/lAPLP/AGyrH/qGTFUL+bH/AJKzzl/2w9S/6g5MVfmrirsVfUH/&#xA;ADg5/wAdXzd/xgsv+JzYq+tMVdir4A/5yj/8nt5m/wCjH/un2+KvKsVTXyn/AMpTo3/Mdbf8nlxV&#xA;+n+KvNf+ckf/ACSXmn/jBD/1ExYq/PXFXYq7FX1H/wA4YfmKIrvUfId9N8FzW/0YMf8AdiClzEv+&#xA;sgEgH+Sx74q+scVdir8ttW/46t5/xnk/4mcVQmKvv/8A5xc/8kT5Z/6Pv+6hcYq9VxV8Qf8AOZP/&#xA;AJNyH/tlW3/J2bFXhWKuxV+qmKuxV2KuxV8q/wDOc/8A0xP/AG9P+xPFXyrirsVfpp+Xn/KAeWf+&#xA;2VY/9QyYqhfzY/8AJWecv+2HqX/UHJir81cVdir6g/5wc/46vm7/AIwWX/E5sVfWmKuxV8Af85R/&#xA;+T28zf8ARj/3T7fFXlWKpr5T/wCUp0b/AJjrb/k8uKv0/wAVea/85I/+SS80/wDGCH/qJixV+euK&#xA;vXP+cevyg8t/mZqWs2GsX11ZS6fDDPbfVDGOSuzJJyEiP0PClMVYb+aPlC28nef9Z8tWszz22mzC&#xA;OGaWhdkaNZFLcQorR+wxVKfLHmHUPLfmLTte05uF7ptxHcw70BKNUo1P2WHwsPA4q/Svyp5k03zP&#xA;5b07X9NfnZalAlxF4ryHxI1P2kaqt7jFU1xV+W2rf8dW8/4zyf8AEziqExV9/wD/ADi5/wCSJ8s/&#xA;9H3/AHULjFXquKviD/nMn/ybkP8A2yrb/k7NirwrFXYq/VTFXYq7FXYq+Vf+c5/+mJ/7en/Ynir5&#xA;VxV2Kv00/Lz/AJQDyz/2yrH/AKhkxVC/mx/5Kzzl/wBsPUv+oOTFX5q4q7FX1B/zg5/x1fN3/GCy&#xA;/wCJzYq+tMVdir4A/wCco/8Aye3mb/ox/wC6fb4q8qxVNfKf/KU6N/zHW3/J5cVfp/irzX/nJH/y&#xA;SXmn/jBD/wBRMWKvz1xV7r/zhvqf1T82pbUtRdR0y4hCnuyPHMD1G4ERxVK/+csdLay/OvVZyvFN&#xA;Rt7S6TwIECwE9B+1CcVePYq+rf8AnC/8xCyaj5DvpfsV1DRwx7EgXMS/SVkA/wBY4q+p8Vfltq3/&#xA;AB1bz/jPJ/xM4qhMVff/APzi5/5Inyz/ANH3/dQuMVeq4q+IP+cyf/JuQ/8AbKtv+Ts2KvCsVdir&#xA;9VMVdirsVdir5V/5zn/6Yn/t6f8AYnir5VxV2Kv00/Lz/lAPLP8A2yrH/qGTFUL+bH/krPOX/bD1&#xA;L/qDkxV+auKuxV9Qf84Of8dXzd/xgsv+JzYq+tMVdir4A/5yj/8AJ7eZv+jH/un2+KvKsVTXyn/y&#xA;lOjf8x1t/wAnlxV+n+KvNf8AnJH/AMkl5p/4wQ/9RMWKvz1xV6d/zjTf/Uvzt8syVosss9uw3ofW&#xA;tZYwDT/KYYq9V/5ze8uFb7y15lRaiWKbTbh6dPTb1oRX39SX7sVfLmKsg/L/AM23XlDzno/mS2qX&#xA;025SWRBsXhPwzR/7ONmX6cVfpfZ3dteWkF5ayCW2uY1mglXo0cihlYfMHFX5k+dIGt/OOu27U5Q6&#xA;jdxtx6VWdxt08MVSbFX3/wD84uf+SJ8s/wDR9/3ULjFXquKviD/nMn/ybkP/AGyrb/k7NirwrFXY&#xA;q+wD/wA5veVKmnlq/I7EzQg0xV3/AEO95W/6lq+/5HQ4q9P/ACc/OjTPzPttUnsNNn04aW8KSLO6&#xA;OXMwcinDw9PFXouKvlX/AJzn/wCmJ/7en/Ynir5VxV2Kv00/Lz/lAPLP/bKsf+oZMVQv5sf+Ss85&#xA;f9sPUv8AqDkxV+auKuxV9Qf84Of8dXzd/wAYLL/ic2KvrTFXYq+AP+co/wDye3mb/ox/7p9viryr&#xA;FU18p/8AKU6N/wAx1t/yeXFX6f4q81/5yR/8kl5p/wCMEP8A1ExYq/PXFWW/lHe/UvzT8o3BPFV1&#xA;iyV2Ndke4RGO3+SxxV9u/wDORPkp/N35UaxaQIZL/T1Gp2CgVJltQWZQBuWeEuijxOKvz1xV2Kvv&#xA;r/nFvzW3mD8n9LjlbndaK8mlzH/Jgo0P3QSIv0Yq+NPzftPqn5q+b4aBVGsXzooFAFkuHdQB7BsV&#xA;Yhir7/8A+cXP/JE+Wf8Ao+/7qFxir1XFXxB/zmT/AOTch/7ZVt/ydmxV4VirsVdirsVfWv8Azg5/&#xA;xyvN3/Gey/4hNir6fxV8q/8AOc//AExP/b0/7E8VfKuKuxV+mn5ef8oB5Z/7ZVj/ANQyYqhfzY/8&#xA;lZ5y/wC2HqX/AFByYq/NXFXYq+oP+cHP+Or5u/4wWX/E5sVfWmKuxV8Af85R/wDk9vM3/Rj/AN0+&#xA;3xV5Viqa+U/+Up0b/mOtv+Ty4q/T/FXmv/OSP/kkvNP/ABgh/wComLFX564qm3lG4Nt5r0W5DiMw&#xA;X9tIHNKLwmVqmu21MVfp8QCKHcHqMVfnj+fv5eHyL+ZOo6dAnDSr0/X9KoKKIJ2J9Mf8YnDJ8gD3&#xA;xV5zir6h/wCcINfKal5n8vO1RNDBqECeHpMYZT9Pqx/diryv/nJSwNl+dvmeOlFllguFO9D69tFI&#xA;SK/5TEYq8yxV9/8A/OLn/kifLP8A0ff91C4xV6rir4g/5zJ/8m5D/wBsq2/5OzYq8KxV2KuxV2Kv&#xA;rT/nBx0Om+b0DDmJrEla7gFZ6GnvQ4q+oMVfKv8AznP/ANMT/wBvT/sTxV8q4q7FX6afl5/ygHln&#xA;/tlWP/UMmKoX82P/ACVnnL/th6l/1ByYq/NXFXYq+oP+cHP+Or5u/wCMFl/xObFX1pirsVfAH/OU&#xA;f/k9vM3/AEY/90+3xV5Viqa+U/8AlKdG/wCY62/5PLir9P8AFXmv/OSP/kkvNP8Axgh/6iYsVfnr&#xA;iqL0n/jq2f8Axnj/AOJjFX6k4q8V/wCcq/y2/wAV/l6+sWUXPWPLfO7i4j4ntSB9Zj+hVEg/1ad8&#xA;VfCuKvZf+cSdUay/OnT7cNQala3dq3uFhNxT74BiqP8A+cx9M+qfm4lyFoNQ0y2nLeLI8kH30hGK&#xA;vC8Vff8A/wA4uf8AkifLP/R9/wB1C4xV6rir4g/5zJ/8m5D/ANsq2/5OzYq8KxV2KorU7M2WpXdm&#xA;QQbaaSEgkE/u2K7kbdsVQuKvqf8A5wZnhWfznblgJpF06RE7lUN0GP0F1+/FX1bir5C/5zf1CF/M&#xA;3ljTw37+3sp7h1ruEnlCKae5gbFXzRirsVfqH5asW0/y5pVg6hGtLO3gZBWgMcSoQK+FMVQP5hWD&#xA;6h5B8y2CAl7vSr6BQvUmW2dBTr44q/MrFXYq+hP+cLvMEFl+YWp6PM4Q6tYE24J+3NauH4gePptI&#xA;30Yq+0MVdir84fzr8ww+YfzX8z6rA/qW8l88MEoNQ8VsBbxsD4MsQI9sVYTirIPy8sG1Dz95bsVB&#xA;JutUsovh60e4QE9+mKv00xV5r/zkj/5JLzT/AMYIf+omLFX564qi9J/46tn/AMZ4/wDiYxV+pOKt&#xA;OiOjI6hkYEMpFQQdiCDir87Pz0/Ls+Q/zG1HSIUK6XcH67pJ7fVpiSqf882DR/7HFUH+TXmXTPLP&#xA;5neX9c1WcW2nWVwWu5yjycI3jZGPCMM5+12GKvQP+cqPzB8g+d9Y0DUvKmp/pGS3t57e+/cXEBQB&#xA;1eH+/ii5cub/AGa9O3dV4Xir7/8A+cXP/JE+Wf8Ao+/7qFxir1XFXxB/zmT/AOTch/7ZVt/ydmxV&#xA;4VirsVegfn55al8vfm75ls2QrFcXb39sSNjFefvxx8Qpcr9GKvP8VZn+U35nap+XPm6LX7GEXUTR&#xA;tb31kzFFmgcgleQB4sGUMpodx4Yq+l5f+c2vIIsS8Whaq9/T4YHFssJbwMwlZqe/p4q+W/zG8/ax&#xA;58823nmTVQsc1xxSC2jJKQwRikcS160HU9zU98VYzirMPyi8py+a/wAyfL+iKnOGa7jlu9thbQH1&#xA;Zq/880IHvir9JMVcQGBBFQdiD0IxV+Z/5j+U7jyl551ry9MhQWF1Ilvy/at2POB/9nEytirG8VTD&#xA;y/r2qeX9bsta0qY2+o6fKs9tKN6Mp7juD0I7jbFX1z5U/wCc0vJV1YRL5m0y807UgoE7WiLcWzMB&#xA;uyEusi1P7JU0/mPXFWM/mn/zmJBqWi3OkeRrG5tJbtDFLrF5wjkjRhRvQiRpPiI6OzDj2Fdwq+XM&#xA;Vdir2P8A5xS8py67+blhelOVnoUcl/cN25BTFCK+PqyBv9icVfeOKvNf+ckf/JJeaf8AjBD/ANRM&#xA;WKvz1xVF6T/x1bP/AIzx/wDExir9ScVdirxD/nLD8tv8T+QDr1lFz1fy1zuRxHxPZsB9ZT/YBRJ/&#xA;sT44q+GsVdirsVff/wDzi5/5Inyz/wBH3/dQuMVeq4q+IP8AnMn/AMm5D/2yrb/k7NirwrFXYq+5&#xA;/wDnJf8AJCfz7o8Ot6FGp80aTGyJFWn1q2qWMNTtzViWj+ZHfZV8PXdpdWd1LaXcL291A5jnglUo&#xA;6OpoysrUIIPY4qo4q7FXYqujjklkWONS8jkKiKCWLE0AAHUnFX2x/wA4ufkldeTdKl8z+YIPR8x6&#xA;rGI4LVx8draEhuLjtJKQCw6qAB15DFXvWKuxV4P/AM5OfkXc+drCPzN5diD+ZdNiMc1ouxvLZasF&#xA;XxljJPD+YGn8uKviee3nt55ILiNoZ4mKSxSKVdWU0KspoQQe2KqeKuxV2KuxVHaLomr65qlvpWkW&#xA;kt9qN0wS3toVLOx+joB1JOwG5xV9+fkN+UMH5beUfqtwUm1/UWWfV7lN15gUSBD3SKpoe5JPemKv&#xA;SsVea/8AOSP/AJJLzT/xgh/6iYsVfnriqL0n/jq2f/GeP/iYxV+pOKuxVbJHHLG0cih43BV0YAqy&#xA;kUIIPUHFX5y/nP8Al7L5C/MHUtCCt+jy31nSpGqedpMSY9z1KUMbHxU4qwfFXYq+/wD/AJxc/wDJ&#xA;E+Wf+j7/ALqFxir1XFXxB/zmT/5NyH/tlW3/ACdmxV4VirsVfqpirA/zF/JH8vPP6mXW9P8AS1ML&#xA;xTVrQiG6A6Dk1CsgHYSKwHbFXhGvf84QakspbQPM8MsJPwxX8DRso8DJEZA3/ADFWPf9CVfmn/1d&#xA;dD/6SLz/ALJMVT3Rv+cINbeQHWvM9tbxg/EllbyTkjwDStBT7jir238t/wDnHz8uPIcyXun2bX+s&#xA;IPh1S/IllQ9zEoCxxfNV5U2qcVelYq7FXYq7FWBfmD+R35cee2a41vTBHqRFP0pZn0LrYUHJgCsl&#xA;B09RWpirxLXf+cH/AN6z6D5ppEfsQX1tVgPeaJwD/wAixirGJv8AnCj8zA9IdY0V0p1eW7Q1+Qtn&#xA;/Xiq+2/5wn/Mhnpc6zo8SbbxSXUhp32a3j/XirL/AC9/zhDpkbrJ5i8zTXC7c7ewgWH/AJKytNX/&#xA;AJFjFXuvkT8rvI3kW1MHlvS47SSQcZ7xqyXMo6/HM9XIrvxB4jsMVZVirsVY/wCf/J1t5z8n6l5Z&#xA;ubh7SDUkRHuIgGdQkiybBtv2MVeF/wDQkPlb/qZb7/kTDiqpa/8AOFHle3uYpx5kvmMTq4Uww0JU&#xA;1xV9IYq7FXYq81/Of8jdE/M+3083V4+mahprOIb2KNZS0UlOUbqSlRVQV3238cVeVf8AQjmlf9Td&#xA;P/0hJ/1WxV3/AEI5pX/U3T/9ISf9VsVe7/ll5Gi8i+SNN8qxXbX8enevxu3QRF/XuJJ90DPSnq06&#xA;4qyjFXj35sf8426J+Y3mhPMF7rNzYTJbR2voQxxuvGNnYNVt6nnirDP+hIfK3/Uy33/ImHFXf9CQ&#xA;+Vv+plvv+RMOKv8A/9k=</xmpGImg:image>
               </rdf:li>
            </rdf:Alt>
         </xmp:Thumbnails>
         <xmpTPg:MaxPageSize rdf:parseType="Resource">
            <stDim:w>299.900001</stDim:w>
            <stDim:h>108.899997</stDim:h>
            <stDim:unit>Pixels</stDim:unit>
         </xmpTPg:MaxPageSize>
         <xmpTPg:NPages>1</xmpTPg:NPages>
         <xmpTPg:HasVisibleTransparency>False</xmpTPg:HasVisibleTransparency>
         <xmpTPg:HasVisibleOverprint>False</xmpTPg:HasVisibleOverprint>
         <xmpTPg:PlateNames>
            <rdf:Seq>
               <rdf:li>Cyan</rdf:li>
               <rdf:li>Magenta</rdf:li>
               <rdf:li>Yellow</rdf:li>
               <rdf:li>Black</rdf:li>
            </rdf:Seq>
         </xmpTPg:PlateNames>
         <xmpTPg:SwatchGroups>
            <rdf:Seq>
               <rdf:li rdf:parseType="Resource">
                  <xmpG:groupName>Default Swatch Group</xmpG:groupName>
                  <xmpG:groupType>0</xmpG:groupType>
               </rdf:li>
            </rdf:Seq>
         </xmpTPg:SwatchGroups>
         <dc:format>image/svg+xml</dc:format>
         <xmpMM:DerivedFrom rdf:parseType="Resource">
            <stRef:instanceID>xmp.iid:89cd69ef-7239-4f67-bb0b-626299af9cfa</stRef:instanceID>
            <stRef:documentID>xmp.did:89cd69ef-7239-4f67-bb0b-626299af9cfa</stRef:documentID>
            <stRef:originalDocumentID>xmp.did:d97508a5-3b7f-4217-96f0-76db7f03c0c1</stRef:originalDocumentID>
         </xmpMM:DerivedFrom>
         <xmpMM:DocumentID>xmp.did:9122adc9-e061-4444-a247-48bae115a2e0</xmpMM:DocumentID>
         <xmpMM:InstanceID>xmp.iid:9122adc9-e061-4444-a247-48bae115a2e0</xmpMM:InstanceID>
         <xmpMM:OriginalDocumentID>xmp.did:d97508a5-3b7f-4217-96f0-76db7f03c0c1</xmpMM:OriginalDocumentID>
         <xmpMM:History>
            <rdf:Seq>
               <rdf:li rdf:parseType="Resource">
                  <stEvt:action>saved</stEvt:action>
                  <stEvt:instanceID>xmp.iid:d97508a5-3b7f-4217-96f0-76db7f03c0c1</stEvt:instanceID>
                  <stEvt:when>2019-11-28T17:40:44+02:00</stEvt:when>
                  <stEvt:softwareAgent>Adobe Illustrator CC 23.0 (Macintosh)</stEvt:softwareAgent>
                  <stEvt:changed>/</stEvt:changed>
               </rdf:li>
               <rdf:li rdf:parseType="Resource">
                  <stEvt:action>saved</stEvt:action>
                  <stEvt:instanceID>xmp.iid:9122adc9-e061-4444-a247-48bae115a2e0</stEvt:instanceID>
                  <stEvt:when>2019-11-28T17:45:26+02:00</stEvt:when>
                  <stEvt:softwareAgent>Adobe Illustrator CC 23.0 (Macintosh)</stEvt:softwareAgent>
                  <stEvt:changed>/</stEvt:changed>
               </rdf:li>
            </rdf:Seq>
         </xmpMM:History>
      </rdf:Description>
   </rdf:RDF>
</x:xmpmeta>
                                                                                                    
                                                                                                    
                                                                                                    
                                                                                                    
                                                                                                    
                                                                                                    
                                                                                                    
                                                                                                    
                                                                                                    
                                                                                                    
                                                                                                    
                                                                                                    
                                                                                                    
                                                                                                    
                                                                                                    
                                                                                                    
                                                                                                    
                                                                                                    
                                                                                                    
                                                                                                    
                           
<?xpacket end="w"?>
	</metadata>
<path d="M176.2,0.1c9.3,0,18.6,0,27.9,0c0.1,0.2,0.3,0.5,0.4,0.7c4.6,9.5,9.1,19.1,13.8,28.6c5.2,10.3,9.2,21,11.6,32.4
	c1.2,5.7,2,11.4,2.4,17.2c0.1,1.1,0.1,2.1,0.2,3.2c2.3,0,4.5,0,6.7,0c0-0.3,0-0.6-0.1-0.8c-0.7-5.2-1.4-10.3-2-15.5
	c-0.6-5.3-1.1-10.6-1.5-15.9c-0.4-6.1-0.8-12.1-0.9-18.2c-0.1-10.5,0-21.1,0-31.6c6.8,0,13.6,0,20.4,0c0,0.3,0,0.5,0,0.8
	c0,35.1,0,70.2,0,105.3c0,0.3,0,0.5,0,0.9c-0.3,0-0.6,0-0.8,0c-7.5,0-15,0-22.6,0c-0.5,0-0.8-0.2-1.1-0.7
	c-6.7-13.7-13.3-27.3-20.1-41c-2.9-5.9-5.7-11.8-7.6-18c-2.2-7.2-3.6-14.5-4-22.1c0-1-0.1-2-0.2-2.9c-2.3,0-4.5,0-6.7,0
	c0,0.2,0,0.3,0,0.4c0.7,4.6,1.4,9.2,1.9,13.8c0.7,5.7,1.2,11.4,1.7,17.1c0.4,5.3,0.7,10.7,0.8,16.1c0.1,12.2,0.1,24.3,0.1,36.5
	c0,0.2,0,0.5,0,0.7c-6.8,0-13.6,0-20.4,0c0-0.3,0-0.6,0-0.9c0-20.8,0-41.5,0-62.3C176.2,29.3,176.2,14.7,176.2,0.1z"/>
<path d="M158.6,0.1c0,0.3,0.1,0.5,0.1,0.8c0,23.5,0,47,0,70.5c0,5.5-0.4,11-1.8,16.4c-1.4,5.2-3.8,9.8-7.9,13.4
	c-3.4,3-7.5,4.8-11.9,5.9c-3.8,1-7.7,1.5-11.7,1.6c-0.4,0-0.8,0.1-1.3,0.1c-2,0-4.1,0-6.1,0c-0.5,0-0.9-0.1-1.4-0.1
	c-4.1-0.2-8.1-0.7-12.1-1.8c-4.9-1.3-9.3-3.5-12.9-7.2c-4.1-4.2-6.3-9.4-7.3-15.1c-0.9-4.6-1.1-9.3-1.1-14c0-23.3,0-46.6,0-69.9
	c0-0.2,0-0.5,0-0.7c8.2,0,16.4,0,24.6,0c0,0.3,0,0.7,0,1c0,21.8,0,43.7,0,65.5c0,3,0.1,6,0.2,9c0.1,2.7,0.6,5.4,1.6,7.9
	c1.3,3.4,3.5,5.9,7.1,6.9c2.6,0.7,5.3,0.7,7.9,0c3.9-1,6.2-3.7,7.5-7.4c1.3-3.7,1.7-7.6,1.7-11.4c0-23.5,0-47.1,0-70.6
	c0-0.3,0-0.6,0-0.9C142.2,0.1,150.4,0.1,158.6,0.1z"/>
<path d="M35.1,108.9c-1.6,0-3.2,0-4.7,0c-0.9-0.1-1.7-0.2-2.6-0.3c-4.6-0.4-9-1.6-13.1-3.7c-6.5-3.4-11-8.4-12.8-15.6
	c-1.2-4.8-1.6-9.6-1.8-14.5c0-1.1-0.1-2.2-0.1-3.2c0-6.4,0-12.7,0-19.1c0.3,0,0.5-0.1,0.8-0.1c7.1,0,14.3,0,21.4,0
	c0.2,0,0.5,0,0.8,0c0,0.3,0,0.6,0,0.8c0,2.1,0,4.2,0,6.2c0.1,6.7,0.1,13.4,0.2,20.1c0,2.1,0.4,4.2,1.2,6.1c1,2.5,2.7,4.1,5.4,4.5
	c1.2,0.2,2.4,0.2,3.6,0.2c3.9-0.1,6.4-2,7.6-5.7c0.1-0.4,0.2-0.8,0.3-1.2c0.8-3.4,0.9-7,0.9-10.5c0-24.3,0-48.6,0-72.8
	c8.1,0,16.1,0,24.2,0c0,0.3,0,0.7,0,1c0,22.2,0,44.4,0,66.7c0,3.5-0.1,7-0.3,10.5c-0.3,4.2-1,8.3-2.4,12.3
	c-2.1,5.9-5.5,10.7-11,13.8c-4.5,2.6-9.4,3.7-14.5,4.2C37.2,108.7,36.1,108.8,35.1,108.9z"/>
<path d="M299.9,107c-0.2,0-0.4,0.1-0.6,0.1c-7.9,0-15.8,0-23.7,0c-0.1,0-0.2,0-0.5,0c0-0.3,0-0.6,0-0.8c0-35.1,0-70.2,0-105.3
	c0-0.3,0.1-0.5,0.1-0.8c8.2,0,16.4,0,24.6,0C299.9,35.7,299.9,71.3,299.9,107z"/>
</svg>
